<svg xmlns="http://www.w3.org/2000/svg" xmlns:xlink="http://www.w3.org/1999/xlink" viewBox="0 0 105 105"><defs><style>.a{fill:url(#a);}.b{fill:#fff;}</style><linearGradient id="a" x1="52.5" x2="52.5" y2="105" gradientUnits="userSpaceOnUse"><stop offset="0" stop-color="#009444"/><stop offset="1" stop-color="#006838"/></linearGradient></defs><rect class="a" width="105" height="105" rx="17.32"/><path class="b" d="M365.88,283.08c0,.4,0,.79,0,1.17H348.75v-1.12q0-5.33-5.6-6.17l-2.52,11.67a69.7,69.7,0,0,1,7.93,2.06,36.67,36.67,0,0,1,6.87,3.17,14.67,14.67,0,0,1,5.41,5.37,15.29,15.29,0,0,1,1.92,7.8,21,21,0,0,1-4.07,12.84,24.24,24.24,0,0,1-10.31,8.07,34.65,34.65,0,0,1-13.54,2.62c-1.06,0-2.06,0-3-.1L330,338.87h-4.76l1.87-8.41q-9.61-.46-16-5.55t-6.35-14.52c0-.87,0-1.68.1-2.43h18.76v1q0,6.25,6.35,7.75l3-13.91q-3.74-1-6.07-1.78a37.76,37.76,0,0,1-5.37-2.29,18.51,18.51,0,0,1-4.76-3.26,14.36,14.36,0,0,1-2.94-4.58,16.14,16.14,0,0,1-1.21-6.39,18.89,18.89,0,0,1,2.42-9.67,17.69,17.69,0,0,1,6.45-6.49,32.08,32.08,0,0,1,8.73-3.45,42.24,42.24,0,0,1,9.85-1.12h1.12l1.68-7.84h4.76L346,263.89q9.81.84,14.89,5.46c3.39,3.09,5.09,7.33,5.09,12.75C365.93,282.35,365.91,282.67,365.88,283.08Zm-28.15-6.58a8.32,8.32,0,0,0-5.27,1.49,4.93,4.93,0,0,0-1.92,4.11,5.83,5.83,0,0,0,.24,1.77,2.81,2.81,0,0,0,1,1.36c.53.4.89.67,1.08.79a11.63,11.63,0,0,0,1.68.7,8.92,8.92,0,0,1,1.49.61l2.43-10.83Zm5.09,30.67a6.24,6.24,0,0,0-2.1-1.73,27.05,27.05,0,0,0-3.27-1.12l-2.8,12.79a5.49,5.49,0,0,0,1,.09,8.91,8.91,0,0,0,5.93-1.91,6.22,6.22,0,0,0,2.29-5A4.64,4.64,0,0,0,342.82,307.17Z" transform="translate(-283.17 -244.91)"/></svg>